#N canvas 846 308 450 300 10;
#X obj 108 39 tgl 15 0 empty empty empty 17 7 0 10 -262144 -1 -1 0
1;
#X obj 45 184 dac~;
#X obj 108 1 bng 15 250 50 0 empty empty empty 17 7 0 10 -262144 -1
-1;
#X obj 165 68 delay;
#X obj 165 31 nbx 5 14 -1e+037 1e+037 0 0 empty empty empty 0 -8 0
10 -262144 -1 -1 200 256;
#X obj 165 108 bng 15 250 50 0 empty empty empty 17 7 0 10 -262144
-1 -1;
#X obj 45 144 *~ 0.1;
#X obj 108 79 vsl 15 128 0 2 0 0 empty empty empty 0 -9 0 10 -262144
-1 -1 1700 1;
#X floatatom 45 31 5 0 0 0 - - -;
#X obj 45 70 osc~;
#X connect 0 0 9 0;
#X connect 2 0 0 0;
#X connect 2 0 3 0;
#X connect 2 0 8 0;
#X connect 3 0 5 0;
#X connect 4 0 3 1;
#X connect 5 0 0 0;
#X connect 6 0 1 0;
#X connect 6 0 1 1;
#X connect 7 0 6 1;
#X connect 8 0 9 0;
#X connect 9 0 6 0;
