#N canvas 846 308 450 300 10;
#X obj 91 20 tgl 15 0 empty empty empty 17 7 0 10 -262144 -1 -1 0 1
;
#X obj 28 227 dac~;
#X obj 91 -18 bng 15 250 50 0 empty empty empty 17 7 0 10 -262144 -1
-1;
#X obj 148 49 delay;
#X obj 175 29 nbx 5 14 -1e+037 1e+037 0 0 empty empty empty 0 -8 0
10 -262144 -1 -1 50 256;
#X obj 174 93 bng 15 250 50 0 empty empty empty 17 7 0 10 -262144 -1
-1;
#X obj 28 125 *~ 0.1;
#X obj 92 61 vsl 15 128 0 2 0 0 empty empty empty 0 -9 0 10 -262144
-1 -1 8300 1;
#X floatatom 32 10 5 0 0 0 - - -;
#X obj 28 51 osc~;
#X obj 74 228 writesf~ 2;
#X msg 117 133 open beep.wav;
#X msg 136 162 start;
#X msg 191 167 stop;
#X obj 233 132 delay 2;
#X obj 124 110 delay 2;
#X text 182 0 Standard values: 750Hz \, 50ms;
#X connect 0 0 9 0;
#X connect 2 0 0 0;
#X connect 2 0 3 0;
#X connect 2 0 8 0;
#X connect 2 0 11 0;
#X connect 2 0 15 0;
#X connect 3 0 5 0;
#X connect 4 0 3 1;
#X connect 5 0 0 0;
#X connect 5 0 14 0;
#X connect 6 0 1 0;
#X connect 6 0 1 1;
#X connect 6 0 10 0;
#X connect 6 0 10 1;
#X connect 7 0 6 1;
#X connect 8 0 9 0;
#X connect 9 0 6 0;
#X connect 11 0 10 0;
#X connect 12 0 10 0;
#X connect 13 0 10 0;
#X connect 14 0 13 0;
#X connect 15 0 12 0;
